<?xml version="1.0" encoding="utf-8"?>
<!-- Generator: Adobe Illustrator 19.0.0, SVG Export Plug-In . SVG Version: 6.00 Build 0)  -->
<svg version="1.1" id="Layer_1" xmlns="http://www.w3.org/2000/svg" xmlns:xlink="http://www.w3.org/1999/xlink" x="0px" y="0px"
	 width="67.7px" height="29px" viewBox="-445 266 67.7 29" style="enable-background:new -445 266 67.7 29;" xml:space="preserve">
<style type="text/css">
	.st0{fill:#FFFFFF;}
</style>
<g id="XMLID_1_">
	<g id="XMLID_30_">
		<path id="XMLID_33_" class="st0" d="M-397.8,289.6c1.5,0,2.7,1.2,2.7,2.7s-1.2,2.7-2.7,2.7s-2.7-1.2-2.7-2.7
			S-399.3,289.6-397.8,289.6z"/>
		<path id="XMLID_32_" class="st0" d="M-385.9,289.6c1.5,0,2.7,1.2,2.7,2.7s-1.2,2.7-2.7,2.7s-2.7-1.2-2.7-2.7
			S-387.4,289.6-385.9,289.6z"/>
		<path id="XMLID_31_" class="st0" d="M-379,274.7c-3.5,0-16.8,0-16.8,0s-1,0.2-1,1.3s1,1.4,1,1.4h15.1l-0.8,2.9
			c-4.1,0-14.8,0-14.8,0s-0.9,0.2-0.9,1.2s0.9,1.3,0.9,1.3h14l0,0l-0.8,2.7h-15.3l-1-8.1l-0.3-2.7c0,0-0.3-2.5-0.5-3.6
			c-0.2-1-2.8-2.4-8.4-5c-1.3-0.6-2.4,1.9,0,3.1l4.4,2.1c0,0,1,0.6,1.1,1.4c0.1,0.8,1.9,14.1,1.9,14.1s0.1,1.9,1.8,1.9
			c1.7,0,15.5,0,16.9,0s1.7-1.5,1.7-1.5l3.4-10C-377.5,277.3-376.5,274.7-379,274.7z"/>
	</g>
	<g id="XMLID_27_">
		<path id="XMLID_28_" class="st0" d="M-426.9,293.5c0,0.4-0.1,0.7-0.4,1c-0.3,0.3-0.6,0.4-1,0.4h-4.1c-0.4,0-0.7-0.1-1-0.4
			c-0.3-0.3-0.4-0.6-0.4-1v-9.8h-9.7c-0.4,0-0.7-0.1-1-0.4c-0.4-0.3-0.5-0.7-0.5-1v-3.6c0-0.4,0.1-0.7,0.4-1c0.3-0.3,0.6-0.4,1-0.4
			h9.7v-9.8c0-0.4,0.1-0.7,0.4-1s0.6-0.4,1-0.4h4.1c0.4,0,0.7,0.1,1,0.4c0.3,0.3,0.4,0.6,0.4,1v9.8h9.6c0.4,0,0.7,0.1,1,0.4
			c0.3,0.3,0.4,0.6,0.4,1v3.6c0,0.4-0.1,0.7-0.4,1c-0.3,0.3-0.6,0.4-1,0.4h-9.6v9.8H-426.9z"/>
	</g>
</g>
</svg>
