<?xml version="1.0" encoding="utf-8"?>
<!-- Generator: Adobe Illustrator 16.0.0, SVG Export Plug-In . SVG Version: 6.00 Build 0)  -->
<!DOCTYPE svg PUBLIC "-//W3C//DTD SVG 1.1//EN" "http://www.w3.org/Graphics/SVG/1.1/DTD/svg11.dtd">
<svg version="1.1" id="Layer_1" xmlns="http://www.w3.org/2000/svg" xmlns:xlink="http://www.w3.org/1999/xlink" x="0px" y="0px"
	 width="60px" height="32px" viewBox="0 0 60 32" enable-background="new 0 0 60 32" xml:space="preserve">
<g>
	<circle fill="#FFFFFF" cx="25.991" cy="6.063" r="4.609"/>
	<path fill="#FFFFFF" d="M36.75,9.606l-0.009-0.009c0.496-0.375,0.807-0.974,0.781-1.642c-0.04-1.086-0.954-1.932-2.039-1.891
		c-0.586,0.021-1.097,0.302-1.44,0.723l-0.016-0.016l-6.469,5.901h-3.721l-6.468-5.901l-0.017,0.016
		c-0.345-0.421-0.854-0.701-1.439-0.723c-1.085-0.042-1.999,0.804-2.039,1.891c-0.025,0.668,0.285,1.267,0.781,1.642l-0.009,0.009
		l6.49,5.921v7.846h0.037l-0.012,5.065h0.022c-0.064,0.539,0.083,1.101,0.474,1.539c0.72,0.813,1.963,0.888,2.774,0.168
		c0.5-0.444,0.72-1.083,0.647-1.7h0.013l0.01-5.072h1.364l-0.011,5.064h0.021c-0.064,0.539,0.085,1.102,0.475,1.539
		c0.72,0.814,1.963,0.888,2.774,0.168c0.5-0.444,0.72-1.083,0.647-1.7h0.012l0.011-5.073H30.4v-7.975L36.75,9.606z"/>
	<circle fill="#FFFFFF" cx="10.672" cy="12.744" r="4.609"/>
	<path fill="#FFFFFF" d="M4.345,27.562l0.007,0.007c-0.406,0.285-0.675,0.755-0.675,1.289c0,0.868,0.704,1.572,1.573,1.572
		c0.468,0,0.884-0.209,1.172-0.534l0.012,0.014l3.579-3.186l-2.089-2.347L4.345,27.562z"/>
	<path fill="#FFFFFF" d="M17.35,27.568l0.008-0.007l-3.58-3.185l-2.088,2.347l3.578,3.186l0.013-0.014
		c0.288,0.325,0.703,0.534,1.172,0.534c0.869,0,1.573-0.704,1.573-1.572C18.026,28.323,17.757,27.854,17.35,27.568z"/>
	<path fill="#FFFFFF" d="M5.25,24.156c0.468,0,0.884-0.209,1.172-0.535l0.012,0.014l1.494-1.33v1.063h5.487v-1.049l1.478,1.315
		l0.013-0.015c0.287,0.326,0.703,0.535,1.172,0.535c0.868,0,1.572-0.706,1.572-1.573c0-0.535-0.269-1.004-0.675-1.287l0.007-0.008
		l-3.565-3.173v-0.013H7.928v0.004l-0.004-0.004l-3.579,3.186l0.007,0.008c-0.406,0.284-0.675,0.754-0.675,1.289
		C3.677,23.45,4.381,24.156,5.25,24.156z"/>
	<circle fill="#FFFFFF" cx="43.877" cy="5.969" r="4.61"/>
	<path fill="#FFFFFF" d="M56.297,20.08c-0.093-0.58-0.434-1.05-0.891-1.341l0.014-0.019l-7.132-6.137v-0.005h-9.261v0.022
		l-0.014-0.017l-7.151,6.127l0.014,0.018c-0.459,0.291-0.799,0.762-0.893,1.341c-0.176,1.072,0.554,2.083,1.625,2.255
		c0.659,0.107,1.295-0.127,1.726-0.574l0.008,0.01l4.686-4.015v2.371l-5.346,5.39l5.377,0.006l-0.006,2.83h0.021
		c-0.064,0.539,0.084,1.102,0.474,1.539c0.72,0.813,1.964,0.889,2.775,0.168c0.5-0.443,0.718-1.082,0.646-1.7h0.013l0.006-2.833
		h1.362l-0.006,2.824l0.022,0.002c-0.065,0.537,0.083,1.101,0.474,1.539c0.719,0.812,1.963,0.888,2.775,0.168
		c0.5-0.444,0.719-1.084,0.646-1.701h0.016l0.005-2.829l5.474,0.005l0.07-0.07l-5.537-5.492v-2.199l4.646,3.998l0.009-0.01
		c0.431,0.447,1.063,0.686,1.724,0.578C55.74,22.162,56.469,21.152,56.297,20.08z"/>
</g>
</svg>
