<?xml version="1.0" encoding="utf-8"?>
<!-- Generator: Adobe Illustrator 16.0.0, SVG Export Plug-In . SVG Version: 6.00 Build 0)  -->
<!DOCTYPE svg PUBLIC "-//W3C//DTD SVG 1.1//EN" "http://www.w3.org/Graphics/SVG/1.1/DTD/svg11.dtd">
<svg version="1.1" id="Layer_1" xmlns="http://www.w3.org/2000/svg" xmlns:xlink="http://www.w3.org/1999/xlink" x="0px" y="0px"
	 width="114px" height="114px" viewBox="0 0 114 114" enable-background="new 0 0 114 114" xml:space="preserve">
<g>
	<g>
		<path fill="#FFFFFF" d="M72.551,29.179c-0.017,0-0.037,0.006-0.058,0.006c-0.019,0-0.034-0.006-0.055-0.006
			c-5.875,0-10.631,4.762-10.631,10.634c0,5.875,4.755,10.646,10.631,10.646c0.021,0,0.036-0.008,0.055-0.008
			c0.021,0,0.041,0.008,0.058,0.008c5.875,0,10.635-4.771,10.635-10.646C83.186,33.94,78.425,29.179,72.551,29.179z"/>
		<path fill="#FFFFFF" d="M44.537,72.699c-0.237,0-0.48,0-0.723-0.008l0.189-6.985c12.537,0.347,18.035-11.501,18.09-11.622
			l6.364,2.874c-0.074,0.176-1.898,4.155-5.768,8.027C57.633,70.037,51.371,72.699,44.537,72.699z"/>
		<path fill="#FFFFFF" d="M97.57,72.826c-2.946,0-6.112-0.299-9.343-1.869c-4.656-2.28-8.486-6.843-11.698-13.949l6.369-2.879
			c5.438,12.029,10.589,11.865,17.117,11.656c0.32-0.013,2.646-0.021,2.971-0.033l-1.813,6.984
			c-0.311,0.008-0.625,0.023-0.937,0.029C99.37,72.793,98.478,72.826,97.57,72.826z"/>
		<path fill="#FFFFFF" d="M42.093,29.179c-0.021,0-0.037,0.006-0.054,0.006c-0.02,0-0.038-0.006-0.056-0.006
			c-5.874,0-10.635,4.762-10.635,10.634c0,5.875,4.762,10.646,10.635,10.646c0.019,0,0.037-0.008,0.056-0.008
			c0.017,0,0.033,0.008,0.054,0.008c5.875,0,10.635-4.771,10.635-10.646C52.728,33.94,47.968,29.179,42.093,29.179z"/>
		<rect x="31.525" y="54.083" fill="#FFFFFF" width="20.731" height="31.964"/>
		<path fill="#FFFFFF" d="M13.875,72.699c-0.234,0-0.48,0-0.723-0.008l-2.814-6.985c12.536,0.347,21.041-11.501,21.093-11.622
			l6.365,2.874c-0.075,0.176-1.9,4.155-5.772,8.027C26.97,70.037,20.71,72.699,13.875,72.699z"/>
		<path fill="#FFFFFF" d="M69.786,72.744c-6.833,0-13.088-2.655-18.146-7.715c-3.869-3.876-5.697-7.854-5.77-8.02l3.183-1.44
			l3.178-1.455c0.009,0.033,1.471,3.155,4.509,6.138c3.868,3.791,8.434,5.645,13.581,5.5l0.192,6.985
			C70.274,72.742,70.03,72.744,69.786,72.744z"/>
		<rect x="62.19" y="54.083" fill="#FFFFFF" width="20.729" height="31.964"/>
	</g>
	<path fill="none" stroke="#FFFFFF" stroke-width="9" stroke-miterlimit="10" d="M108,57.002C108,85.174,85.166,108,56.996,108
		C28.838,108,6,85.174,6,57.002C6,28.832,28.838,6,56.996,6C85.166,6,108,28.832,108,57.002z"/>
</g>
</svg>
