<?xml version="1.0" encoding="utf-8"?>
<!-- Generator: Adobe Illustrator 16.0.0, SVG Export Plug-In . SVG Version: 6.00 Build 0)  -->
<!DOCTYPE svg PUBLIC "-//W3C//DTD SVG 1.1//EN" "http://www.w3.org/Graphics/SVG/1.1/DTD/svg11.dtd">
<svg version="1.1" id="Layer_1" xmlns="http://www.w3.org/2000/svg" xmlns:xlink="http://www.w3.org/1999/xlink" x="0px" y="0px"
	 width="114px" height="114px" viewBox="0 0 114 114" enable-background="new 0 0 114 114" xml:space="preserve">
<g>
	<g>
		<circle fill="none" stroke="#FFFFFF" stroke-width="9" stroke-miterlimit="10" cx="57" cy="57" r="51"/>
	</g>
	<g>
		<g>
			<path fill="#FFFFFF" d="M33.052,56.849l-8.236-12.237V56.73c0,0.217-0.077,0.402-0.234,0.56s-0.343,0.235-0.56,0.235h-2.383
				c-0.216,0-0.401-0.078-0.559-0.235c-0.157-0.156-0.235-0.343-0.235-0.56V37.727c0-0.215,0.078-0.4,0.235-0.559
				c0.156-0.156,0.343-0.235,0.559-0.235h2.06c0.45,0,0.834,0.227,1.146,0.678l8.237,12.236v-12.12c0-0.215,0.078-0.4,0.235-0.559
				c0.155-0.156,0.343-0.235,0.559-0.235h2.383c0.216,0,0.401,0.079,0.56,0.235c0.156,0.157,0.234,0.344,0.234,0.559V56.73
				c0,0.217-0.078,0.402-0.234,0.56c-0.157,0.157-0.344,0.234-0.56,0.234h-2.06C33.748,57.525,33.366,57.3,33.052,56.849z"/>
			<path fill="#FFFFFF" d="M43.848,53.849h9.737c0.215,0,0.401,0.078,0.559,0.235c0.158,0.157,0.235,0.343,0.235,0.559v2.089
				c0,0.217-0.078,0.402-0.235,0.56c-0.156,0.157-0.344,0.235-0.559,0.235H40.671c-0.216,0-0.402-0.078-0.559-0.235
				c-0.157-0.156-0.235-0.343-0.235-0.56V37.727c0-0.215,0.078-0.4,0.235-0.559c0.155-0.156,0.343-0.235,0.559-0.235H53.35
				c0.215,0,0.401,0.079,0.56,0.235c0.156,0.157,0.234,0.344,0.234,0.559v2.089c0,0.217-0.078,0.402-0.234,0.561
				c-0.157,0.156-0.345,0.234-0.56,0.234h-9.502v4.678h8.854c0.216,0,0.4,0.078,0.559,0.234c0.158,0.157,0.235,0.345,0.235,0.56
				v2.089c0,0.216-0.078,0.402-0.235,0.559c-0.157,0.157-0.343,0.235-0.559,0.235h-8.854V53.849z"/>
			<path fill="#FFFFFF" d="M63.234,56.525c-0.1,0.334-0.227,0.584-0.384,0.75c-0.156,0.167-0.373,0.25-0.646,0.25h-2.383
				c-0.55,0-0.894-0.333-1.029-1l-3.766-18.563l-0.03-0.236c0-0.215,0.078-0.4,0.234-0.559c0.157-0.156,0.344-0.235,0.561-0.235
				h2.177c0.215,0,0.406,0.064,0.573,0.191c0.166,0.128,0.279,0.328,0.338,0.603L61.351,50.2l2.178-7.854
				c0.039-0.195,0.142-0.388,0.309-0.574c0.167-0.186,0.407-0.278,0.721-0.278h2.412c0.313,0,0.554,0.094,0.722,0.278
				c0.167,0.188,0.27,0.378,0.309,0.574l2.178,7.854l2.471-12.474c0.06-0.273,0.172-0.475,0.339-0.603
				c0.167-0.127,0.356-0.191,0.573-0.191h2.178c0.215,0,0.4,0.079,0.559,0.235c0.157,0.157,0.235,0.344,0.235,0.559l-0.029,0.235
				l-3.768,18.563c-0.138,0.667-0.48,1-1.029,1h-2.383c-0.274,0-0.49-0.083-0.647-0.25c-0.157-0.166-0.284-0.416-0.382-0.75
				l-2.53-8.797L63.234,56.525z"/>
			<path fill="#FFFFFF" d="M92.855,42.626c-0.156,0.146-0.354,0.221-0.589,0.221h-2.059c-0.314,0-0.561-0.059-0.735-0.177
				c-0.177-0.117-0.334-0.294-0.471-0.529c-0.334-0.549-0.814-0.989-1.441-1.323c-0.628-0.333-1.48-0.5-2.56-0.5
				c-1.059,0-1.951,0.216-2.677,0.646c-0.727,0.431-1.089,1.01-1.089,1.735c0,0.589,0.172,1.045,0.515,1.368
				c0.344,0.322,0.878,0.594,1.604,0.809c0.727,0.216,1.912,0.5,3.561,0.854c2.373,0.511,4.089,1.227,5.146,2.147
				c1.061,0.922,1.59,2.187,1.59,3.795c0,1.177-0.345,2.23-1.029,3.162c-0.688,0.932-1.673,1.662-2.957,2.191
				c-1.284,0.528-2.79,0.794-4.516,0.794c-1.472,0-2.844-0.235-4.118-0.706c-1.274-0.472-2.305-1.143-3.088-2.016
				c-0.785-0.872-1.206-1.868-1.267-2.985c-0.02-0.235,0.049-0.427,0.206-0.573c0.157-0.147,0.354-0.221,0.589-0.221h2.06
				c0.313,0,0.563,0.059,0.75,0.177c0.187,0.117,0.339,0.294,0.456,0.528c0.333,0.647,0.817,1.162,1.456,1.546
				c0.638,0.382,1.622,0.572,2.956,0.572c1.295,0,2.372-0.206,3.235-0.618c0.863-0.41,1.294-1.028,1.294-1.853
				c0-0.471-0.166-0.849-0.5-1.133c-0.333-0.284-0.804-0.521-1.411-0.706c-0.607-0.188-1.529-0.427-2.766-0.721
				c-0.49-0.099-1.128-0.245-1.912-0.441c-2.06-0.51-3.545-1.206-4.457-2.089c-0.911-0.882-1.367-2.177-1.367-3.883
				c0-1.156,0.338-2.196,1.016-3.118c0.677-0.921,1.604-1.643,2.779-2.162c1.177-0.521,2.49-0.779,3.941-0.779
				c1.646,0,3.074,0.279,4.28,0.838c1.206,0.561,2.122,1.262,2.75,2.104c0.628,0.844,0.971,1.667,1.029,2.472
				C93.08,42.287,93.012,42.478,92.855,42.626z"/>
			<path fill="#FFFFFF" d="M29.558,74.881c0.113,0.113,0.17,0.248,0.17,0.403v1.505c0,0.155-0.057,0.29-0.17,0.401
				c-0.112,0.113-0.247,0.171-0.401,0.171H19.87c-0.155,0-0.289-0.058-0.402-0.171c-0.113-0.111-0.17-0.246-0.17-0.401V63.094
				c0-0.155,0.057-0.289,0.17-0.401c0.113-0.113,0.247-0.171,0.402-0.171h1.718c0.155,0,0.289,0.058,0.402,0.171
				c0.112,0.112,0.17,0.246,0.17,0.401v11.617h6.996C29.311,74.711,29.445,74.767,29.558,74.881z"/>
			<path fill="#FFFFFF" d="M34.624,74.711h7.017c0.155,0,0.29,0.057,0.403,0.17c0.112,0.113,0.169,0.248,0.169,0.403v1.505
				c0,0.155-0.057,0.29-0.169,0.401c-0.113,0.113-0.248,0.171-0.403,0.171h-9.307c-0.155,0-0.289-0.058-0.402-0.171
				c-0.112-0.111-0.17-0.246-0.17-0.401V63.094c0-0.155,0.058-0.289,0.17-0.401c0.113-0.113,0.247-0.171,0.402-0.171h9.138
				c0.155,0,0.289,0.058,0.402,0.171c0.113,0.112,0.17,0.246,0.17,0.401V64.6c0,0.155-0.057,0.289-0.17,0.402
				s-0.247,0.17-0.402,0.17h-6.848v3.37h6.381c0.155,0,0.29,0.057,0.403,0.17c0.111,0.113,0.169,0.247,0.169,0.402v1.506
				c0,0.154-0.058,0.29-0.169,0.401c-0.113,0.113-0.248,0.17-0.403,0.17h-6.381V74.711z"/>
			<path fill="#FFFFFF" d="M55.124,62.69c0.112,0.113,0.169,0.247,0.169,0.402v1.506c0,0.155-0.057,0.289-0.169,0.402
				c-0.113,0.113-0.248,0.17-0.403,0.17h-3.814v11.617c0,0.155-0.058,0.29-0.17,0.401c-0.113,0.113-0.247,0.171-0.402,0.171h-1.718
				c-0.155,0-0.289-0.058-0.402-0.171c-0.113-0.111-0.17-0.246-0.17-0.401V65.172h-3.815c-0.155,0-0.29-0.057-0.402-0.17
				c-0.113-0.113-0.169-0.247-0.169-0.402v-1.506c0-0.155,0.056-0.289,0.169-0.401c0.112-0.113,0.247-0.171,0.402-0.171h10.493
				C54.876,62.521,55.011,62.578,55.124,62.69z"/>
			<path fill="#FFFFFF" d="M67.696,62.69c0.111,0.113,0.169,0.247,0.169,0.402v1.506c0,0.155-0.058,0.289-0.169,0.402
				c-0.113,0.113-0.248,0.17-0.403,0.17h-3.815v11.617c0,0.155-0.057,0.29-0.17,0.401c-0.112,0.113-0.247,0.171-0.401,0.171h-1.719
				c-0.154,0-0.289-0.058-0.401-0.171c-0.113-0.111-0.17-0.246-0.17-0.401V65.172h-3.815c-0.156,0-0.29-0.057-0.403-0.17
				c-0.112-0.113-0.169-0.247-0.169-0.402v-1.506c0-0.155,0.057-0.289,0.169-0.401c0.113-0.113,0.247-0.171,0.403-0.171h10.493
				C67.448,62.521,67.582,62.578,67.696,62.69z"/>
			<path fill="#FFFFFF" d="M72.847,74.711h7.018c0.154,0,0.29,0.057,0.402,0.17s0.169,0.248,0.169,0.403v1.505
				c0,0.155-0.057,0.29-0.169,0.401c-0.112,0.113-0.248,0.171-0.402,0.171h-9.308c-0.154,0-0.289-0.058-0.401-0.171
				c-0.113-0.111-0.17-0.246-0.17-0.401V63.094c0-0.155,0.057-0.289,0.17-0.401c0.112-0.113,0.247-0.171,0.401-0.171h9.139
				c0.154,0,0.289,0.058,0.401,0.171c0.113,0.112,0.17,0.246,0.17,0.401V64.6c0,0.155-0.057,0.289-0.17,0.402
				c-0.112,0.113-0.247,0.17-0.401,0.17h-6.849v3.37h6.381c0.155,0,0.29,0.057,0.403,0.17c0.112,0.113,0.169,0.247,0.169,0.402
				v1.506c0,0.154-0.057,0.29-0.169,0.401c-0.113,0.113-0.248,0.17-0.403,0.17h-6.381V74.711z"/>
			<path fill="#FFFFFF" d="M93.113,63.751c0.933,0.82,1.398,1.958,1.398,3.413c0,1.032-0.241,1.912-0.721,2.64
				c-0.481,0.729-1.174,1.27-2.078,1.622l2.926,5.236c0.042,0.084,0.063,0.162,0.063,0.231c0,0.128-0.046,0.237-0.139,0.329
				c-0.092,0.092-0.2,0.139-0.327,0.139h-1.804c-0.41,0-0.714-0.19-0.911-0.572l-2.776-4.939h-2.819v4.939
				c0,0.155-0.057,0.29-0.17,0.401c-0.113,0.113-0.247,0.171-0.402,0.171h-1.718c-0.155,0-0.289-0.058-0.401-0.171
				c-0.113-0.111-0.171-0.246-0.171-0.401V63.094c0-0.155,0.058-0.289,0.171-0.401c0.112-0.113,0.246-0.171,0.401-0.171h5.47
				C90.844,62.521,92.18,62.932,93.113,63.751z M89,69.199c0.861,0,1.519-0.151,1.971-0.455c0.452-0.305,0.68-0.83,0.68-1.58
				c0-0.749-0.224-1.269-0.669-1.559c-0.444-0.29-1.104-0.435-1.98-0.435h-3.075v4.027L89,69.199L89,69.199z"/>
		</g>
	</g>
</g>
</svg>
