<?xml version="1.0" encoding="utf-8"?>
<!-- Generator: Adobe Illustrator 16.0.0, SVG Export Plug-In . SVG Version: 6.00 Build 0)  -->
<!DOCTYPE svg PUBLIC "-//W3C//DTD SVG 1.1//EN" "http://www.w3.org/Graphics/SVG/1.1/DTD/svg11.dtd">
<svg version="1.1" id="Layer_1" xmlns="http://www.w3.org/2000/svg" xmlns:xlink="http://www.w3.org/1999/xlink" x="0px" y="0px"
	 width="114px" height="114px" viewBox="0 0 114 114" enable-background="new 0 0 114 114" xml:space="preserve">
<g>
	<g>
		<path fill="#FFFFFF" stroke="#FFFFFF" stroke-width="9" stroke-miterlimit="10" d="M108,57.003C108,85.169,85.166,108,56.997,108
			C28.829,108,6,85.167,6,57.003C6,28.833,28.829,6,56.997,6C85.167,6,108,28.831,108,57.003z"/>
	</g>
	<g>
		<path fill="#0472B6" d="M41.915,64.77c0,0-0.084-21.069,0-22.234c0.084-1.167,0.75-6.496,4.914-9.493
			c4.165-2.998,9.389-5.867,17.989-2.417c0,0,6.497,6.164,6.913,8.412c0.416,2.249,0.583,18.903,0,21.735
			c-0.584,2.83-4.081,8.744-5.747,9.325c-1.666,0.583-7.241,1.833-9.328-2.331c-2.086-4.165-1.249-7.495-0.083-8.494
			c1.166-1,1.749-1.05,1.999-2.273s0.333-20.629,0.167-21.878c-0.167-1.249-1.091-1.665-1.67-1.915
			c-0.579-0.25-1.578,0.167-1.495,2.083c0.083,1.915-0.599,19.953-0.333,23.065c0.266,3.113,0.166,12.741,0.166,14.574
			s0.246,3.423-0.166,6.661c-0.412,3.238-3.832,5.414-5.331,5.664s-6.995-1.667-7.578-3.915c-0.583-2.249-0.454-16.239-0.454-16.239
			"/>
		<g>
			<g>
				<path fill="none" d="M57.847,34.503c0-0.451-0.368-0.817-0.821-0.817c-0.451,0-0.819,0.367-0.819,0.817V58.81
					c0.468-0.61,1.019-1.152,1.64-1.609V34.503z"/>
				<path fill="none" d="M57.026,29.593c-7.905,0-14.323,6.409-14.323,14.316v34.567c0,3.272,2.658,5.932,5.934,5.932
					c3.277,0,5.933-2.658,5.933-5.932V34.503c0-1.354,1.1-2.456,2.458-2.456c1.358,0,2.461,1.102,2.461,2.456v23.582
					c-2.029,1.136-3.28,3.272-3.28,5.594c0,3.541,2.873,6.41,6.413,6.41c1.704,0,3.334-0.671,4.536-1.875
					c2.687-2.686,4.196-6.328,4.196-10.128V43.91C71.353,36.002,64.935,29.593,57.026,29.593z"/>
				<path fill="#FFFFFF" d="M57.026,27.952c-8.812,0-15.961,7.148-15.961,15.958v34.567c0,4.179,3.393,7.567,7.571,7.567
					c4.178,0,7.571-3.389,7.571-7.567v-9.929c1.523,2.002,3.895,3.178,6.413,3.178c2.134,0,4.187-0.847,5.697-2.356
					c1.837-1.842,3.194-4.175,4.006-6.475c0.513-1.368,0.593-1.935,0.665-2.854c0.185-2.411,0-9.672,0-9.672v-6.458
					C72.988,35.101,65.835,27.952,57.026,27.952z M71.353,58.084c0,3.801-1.51,7.441-4.196,10.128
					c-1.201,1.204-2.833,1.875-4.536,1.875c-3.54,0-6.413-2.869-6.413-6.41c0-2.319,1.251-4.458,3.28-5.595V34.502
					c0-1.354-1.103-2.456-2.461-2.456c-1.357,0-2.458,1.101-2.458,2.456v43.973c0,3.273-2.654,5.931-5.933,5.931
					c-3.274,0-5.934-2.658-5.934-5.931V43.908c0-7.907,6.417-14.316,14.323-14.316c7.909,0,14.327,6.409,14.327,14.316
					L71.353,58.084L71.353,58.084z M56.207,58.809V34.502c0-0.451,0.368-0.817,0.819-0.817c0.453,0,0.821,0.367,0.821,0.817v22.697
					C57.226,57.657,56.675,58.199,56.207,58.809z"/>
				<g>
					<path fill="#0472B6" d="M76.098,43.861v-0.324V42.52c-0.015,0.01,0,0.242-0.045-0.556c-0.983-9.631-9.14-17.172-19.027-17.172
						c-10.545,0-19.122,8.576-19.122,19.115v34.567c0,5.916,4.813,10.728,10.731,10.728c5.916,0,10.732-4.812,10.732-10.728v-4.068
						c1.051,0.312,2.145,0.478,3.252,0.478c2.995,0,5.807-1.163,7.927-3.281c0.395-0.393,0.761-0.802,1.117-1.228l0.003,0.006
						c0,0,1.62-1.608,2.961-4.933v0.006h0.023c0.447-1.119,1.444-3.914,1.444-6.705V43.861H76.098z M74.629,57.763v2.152
						c0,0-0.217,3.516-2.68,7.466c-0.215,0.347-0.441,0.688-0.682,1.02c-0.134,0.188-0.275,0.373-0.417,0.562
						c-0.431,0.546-0.885,1.07-1.375,1.562v0.004c-1.816,1.814-4.282,2.834-6.853,2.834c-1.674,0-3.32-0.434-4.774-1.257v6.371
						c0,5.082-4.128,9.206-9.211,9.206c-5.085,0-9.209-4.124-9.209-9.206V43.909c0-9.71,7.881-17.592,17.599-17.592
						c9.714,0,17.603,7.883,17.603,17.592V57.763z"/>
				</g>
			</g>
		</g>
	</g>
</g>
</svg>
