<?xml version="1.0" encoding="utf-8"?>
<!-- Generator: Adobe Illustrator 16.0.0, SVG Export Plug-In . SVG Version: 6.00 Build 0)  -->
<!DOCTYPE svg PUBLIC "-//W3C//DTD SVG 1.1//EN" "http://www.w3.org/Graphics/SVG/1.1/DTD/svg11.dtd">
<svg version="1.1" id="Layer_1" xmlns="http://www.w3.org/2000/svg" xmlns:xlink="http://www.w3.org/1999/xlink" x="0px" y="0px"
	 width="114px" height="114px" viewBox="0 0 114 114" enable-background="new 0 0 114 114" xml:space="preserve">
<g>
	<g>
		<circle fill="none" stroke="#FFFFFF" stroke-width="9" stroke-miterlimit="10" cx="57" cy="57" r="51"/>
	</g>
	<path fill="#FFFFFF" d="M79.479,37.371H67.191c-1.405-3.854-5.102-6.617-9.448-6.617c-4.348,0-8.042,2.763-9.446,6.617H36.01
		l-3.707,49.728h24.971h0.938h24.971L79.479,37.371z M46.502,40.812c0-0.969,0.586-1.796,1.424-2.154
		c-0.151,0.694-0.235,1.416-0.235,2.154c0,0.742,0.084,1.462,0.239,2.154C47.089,42.612,46.502,41.78,46.502,40.812z M49.97,42.862
		c-0.176-0.654-0.274-1.344-0.274-2.049c0-0.712,0.097-1.398,0.269-2.055c0.725,0.396,1.22,1.166,1.22,2.055
		C51.184,41.696,50.689,42.464,49.97,42.862z M57.275,37.371h-6.808c1.289-2.721,4.065-4.607,7.278-4.607
		c3.216,0,5.987,1.889,7.276,4.607h-6.809H57.275z M64.307,40.812c0-0.889,0.492-1.657,1.217-2.055
		c0.175,0.656,0.267,1.341,0.267,2.055c0,0.707-0.098,1.395-0.271,2.049C64.799,42.464,64.307,41.696,64.307,40.812z M67.559,42.966
		c0.151-0.692,0.237-1.413,0.237-2.154c0-0.74-0.082-1.46-0.236-2.155c0.839,0.359,1.43,1.187,1.43,2.155
		C68.989,41.78,68.397,42.612,67.559,42.966z"/>
</g>
</svg>
