<?xml version="1.0" encoding="utf-8"?>
<!-- Generator: Adobe Illustrator 16.0.0, SVG Export Plug-In . SVG Version: 6.00 Build 0)  -->
<!DOCTYPE svg PUBLIC "-//W3C//DTD SVG 1.1//EN" "http://www.w3.org/Graphics/SVG/1.1/DTD/svg11.dtd">
<svg version="1.1" id="Layer_1" xmlns="http://www.w3.org/2000/svg" xmlns:xlink="http://www.w3.org/1999/xlink" x="0px" y="0px"
	 width="114px" height="114px" viewBox="0 0 114 114" enable-background="new 0 0 114 114" xml:space="preserve">
<g>
	<circle fill="none" stroke="#FFFFFF" stroke-width="9" stroke-miterlimit="10" cx="57" cy="57" r="51"/>
	<path fill="#FFFFFF" d="M56.065,29.531c-9.662,0-17.505,7.84-17.505,17.504c0,17.506,17.505,38.504,17.505,38.504
		S73.573,64.54,73.573,47.035C73.573,37.369,65.736,29.531,56.065,29.531z M56.065,57.753c-5.921,0-10.72-4.798-10.72-10.721
		c0-5.92,4.799-10.721,10.72-10.721c5.92,0,10.722,4.801,10.722,10.721C66.787,52.956,61.985,57.753,56.065,57.753z M49.281,47.033
		c0,3.744,3.038,6.783,6.784,6.783s6.789-3.039,6.789-6.783c0-3.75-3.043-6.783-6.789-6.783S49.281,43.283,49.281,47.033z"/>
</g>
</svg>
