<?xml version="1.0" encoding="utf-8"?>
<!-- Generator: Adobe Illustrator 19.0.0, SVG Export Plug-In . SVG Version: 6.00 Build 0)  -->
<svg version="1.1" id="Layer_1" xmlns="http://www.w3.org/2000/svg" xmlns:xlink="http://www.w3.org/1999/xlink" x="0px" y="0px"
	 viewBox="0 0 135 64" style="enable-background:new 0 0 135 64;" xml:space="preserve">
<style type="text/css">
	.st0{fill:#FFFFFF;stroke:#FFFFFF;stroke-width:2;stroke-miterlimit:10;}
</style>
<g id="XMLID_2_">
	<g id="XMLID_3_">
		<path id="XMLID_139_" class="st0" d="M97.3,63H38V13.1h59.3V63z M42.3,58.7h50.6V17.4H42.3L42.3,58.7L42.3,58.7z"/>
		<rect id="XMLID_138_" x="1" y="58.7" class="st0" width="133" height="4.3"/>
		<path id="XMLID_134_" class="st0" d="M55.6,27.5l-2.4-2.7c3.7-1.8,6.6-5,9.2-8.3c-3.7-0.4-7.8-1.2-11.7-3c-4-1.8-6-4.4-5.6-7.1
			c0.3-2.2,2.3-4,5.2-4.7c3.4-0.9,7.4,0,10.6,2.3c2.6,1.9,4.6,4,6.4,6c2.1-2.5,4.3-4.9,7.1-6.7c3.3-2.1,7.1-2.8,10.4-1.9
			c2.8,0.8,4.8,2.6,5.1,4.7c0.4,2.5-1.3,4.9-4.7,6.7c-3.2,1.7-7.7,2.9-12.5,3.5c2.4,2.7,5.3,5.5,9.5,8.1l-2.8,2.4
			C74.2,23.5,70.9,20,68,16.6c-0.2,0-0.5,0-0.7,0C64.1,20.9,60.6,25,55.6,27.5z M53.2,4.5c-0.5,0-0.9,0.1-1.3,0.2
			c-1.3,0.3-2.2,1.1-2.3,2.1c-0.2,1.4,1.1,2.8,3.6,4c3.6,1.7,7.6,2.5,11.7,2.7c0.1-0.1,0.2-0.2,0.2-0.3c-2.1-2.4-4.2-4.7-7.1-6.9
			C56.4,5.1,54.7,4.5,53.2,4.5z M70,13c0.1,0.1,0.2,0.2,0.3,0.3c5.1-0.4,9.7-1.6,12.5-3.1c2.1-1.1,3.2-2.5,3-3.7
			c-0.2-1-1.1-1.8-2.4-2.1c-1.8-0.5-4,0-6.1,1.3C74.5,7.5,72.3,10.1,70,13z"/>
		<rect id="XMLID_133_" x="65.5" y="15.2" class="st0" width="4.3" height="45.6"/>
	</g>
</g>
</svg>
