<?xml version="1.0" encoding="utf-8"?>
<!-- Generator: Adobe Illustrator 19.0.0, SVG Export Plug-In . SVG Version: 6.00 Build 0)  -->
<svg version="1.1" id="Layer_1" xmlns="http://www.w3.org/2000/svg" xmlns:xlink="http://www.w3.org/1999/xlink" x="0px" y="0px"
	 viewBox="0 0 80.6 59.2" style="enable-background:new 0 0 80.6 59.2;" xml:space="preserve">
<style type="text/css">
	.st0{fill:#FFFFFF;}
	.st1{fill:none;stroke:#FFFFFF;stroke-width:5;stroke-miterlimit:10;}
</style>
<g id="XMLID_2_">
	<g id="XMLID_4_">
		<g id="XMLID_6_">
			<path id="XMLID_7_" class="st0" d="M15.1,7.3H17c0,0-6.8-3.3-5.9-4.2c1.2-1.2,5.7,0.7,6.9,2.1c0.4,0.4,0.9,2.2,0.9,2.2h3.7
				c0,0,0.5-1.7,0.9-2.2c1.2-1.3,5.8-3.3,6.9-2.1c0.9,0.9-5.9,4.2-5.9,4.2h1.9c0,0,7.8-1.6,8.2-3.1c0.2-0.9-1.5-2.4-2.2-3.1
				C32,0.7,30.8,0,30.1,0c-0.8,0-2.4,0.8-3.1,1.2c-0.8,0.5-2.2,1.6-3.1,1.9c-0.3,0.1-0.9,0.2-1.4,0.3V2.3h-3.3v1.2
				c-0.5-0.1-1.3-0.2-1.6-0.3c-0.9-0.3-2.3-1.4-3.1-1.9C13.8,0.8,12.3,0,11.4,0c-0.6,0-1.8,0.7-2.3,1.1C8.4,1.8,6.7,3.3,6.9,4.2
				C7.3,5.6,15.1,7.3,15.1,7.3z"/>
		</g>
		<path id="XMLID_5_" class="st1" d="M78.1,50c0,3.7-2.5,6.7-5.6,6.7H8.1c-3.1,0-5.6-3-5.6-6.7V16.2c0-3.7,2.5-6.7,5.6-6.7h64.4
			c3.1,0,5.6,3,5.6,6.7V50z"/>
	</g>
	<rect id="XMLID_3_" x="2.5" y="37.9" class="st0" width="75.6" height="8.9"/>
</g>
</svg>
