<?xml version="1.0" encoding="utf-8"?>
<!-- Generator: Adobe Illustrator 19.0.0, SVG Export Plug-In . SVG Version: 6.00 Build 0)  -->
<svg version="1.1" id="Layer_1" xmlns="http://www.w3.org/2000/svg" xmlns:xlink="http://www.w3.org/1999/xlink" x="0px" y="0px"
	 viewBox="0 0 53.4 51.6" style="enable-background:new 0 0 53.4 51.6;" xml:space="preserve">
<style type="text/css">
	.st0{fill:#FFFFFF;}
</style>
<g id="XMLID_2_">
	<path id="XMLID_3_" class="st0" d="M21.9,13.1c0,1.9,0,3.2-0.1,4.1c-0.2,2.5-1.2,4.6-3.1,6.4c-1.8,1.8-4.4,2.6-7.8,2.6
		c-3.3,0-5.9-0.9-7.8-2.6c-1.8-1.8-2.9-3.9-3-6.4C0,15.5,0,14.1,0,13.1c0-1,0-2.3,0.1-4c0.2-2.5,1.2-4.7,3-6.4C5,0.9,7.6,0,11,0
		c3.3,0,5.9,0.9,7.8,2.7s2.9,3.9,3.1,6.4C21.9,9.9,21.9,11.2,21.9,13.1z M41.2,0.7c0.4-0.2,0.9-0.3,1.5-0.3H47c0.5,0,1,0.1,1.3,0.4
		c0.3,0.3,0.5,0.6,0.5,1.1c0,0.3-0.1,0.6-0.3,0.8L12.6,49.8c-0.4,0.5-0.8,0.8-1.1,1.1c-0.4,0.2-0.9,0.3-1.5,0.3H5.7
		c-0.5,0-1-0.1-1.3-0.4c-0.3-0.3-0.5-0.6-0.5-1.1c0-0.3,0.1-0.6,0.3-0.8L40.1,1.7C40.5,1.3,40.8,0.9,41.2,0.7z M13.8,7.2
		c-0.6-0.6-1.5-0.9-2.8-0.9c-2.3,0-3.6,1.2-3.8,3.5c0,0.3-0.1,1.5-0.1,3.3c0,1.8,0,3,0.1,3.3c0.3,2.3,1.6,3.5,3.8,3.5
		c2.3,0,3.6-1.2,3.8-3.5c0.1-0.8,0.1-1.9,0.1-3.3c0-1.5,0-2.7-0.1-3.3C14.7,8.7,14.3,7.8,13.8,7.2z M53.4,38.5c0,1.9,0,3.2-0.1,4.1
		c-0.2,2.5-1.2,4.6-3,6.4c-1.8,1.8-4.4,2.7-7.8,2.7c-3.3,0-5.9-0.9-7.8-2.7c-1.8-1.8-2.9-3.9-3-6.4c-0.1-1.6-0.1-3-0.1-4.1
		c0-1,0-2.3,0.1-4c0.2-2.5,1.2-4.7,3-6.4c1.8-1.8,4.4-2.7,7.8-2.7c3.3,0,5.9,0.9,7.8,2.7c1.8,1.8,2.9,3.9,3,6.4
		C53.3,35.4,53.4,36.7,53.4,38.5z M45.2,32.7c-0.6-0.6-1.5-0.9-2.8-0.9c-2.3,0-3.6,1.2-3.8,3.5c0,0.3-0.1,1.4-0.1,3.3
		c0,1.8,0,3,0.1,3.3c0.3,2.3,1.6,3.5,3.8,3.5c2.3,0,3.6-1.2,3.8-3.5c0.1-0.8,0.1-1.9,0.1-3.3c0-1.5-0.1-2.7-0.1-3.3
		C46.1,34.1,45.7,33.3,45.2,32.7z"/>
</g>
</svg>
