<?xml version="1.0" encoding="utf-8"?>
<!-- Generator: Adobe Illustrator 19.0.0, SVG Export Plug-In . SVG Version: 6.00 Build 0)  -->
<svg version="1.1" id="Layer_1" xmlns="http://www.w3.org/2000/svg" xmlns:xlink="http://www.w3.org/1999/xlink" x="0px" y="0px"
	 width="36.3px" height="27.2px" viewBox="-461 267.8 36.3 27.2" style="enable-background:new -461 267.8 36.3 27.2;"
	 xml:space="preserve">
<style type="text/css">
	.st0{fill:#FFFFFF;}
</style>
<g id="XMLID_20_">
	<path id="XMLID_21_" class="st0" d="M-429.3,267.8h-27.2c-2.5,0-4.5,2-4.5,4.5v18.1c0,2.5,2,4.5,4.5,4.5h27.2c2.5,0,4.5-2,4.5-4.5
		v-18.1C-424.7,269.8-426.7,267.8-429.3,267.8z M-436.7,279.9l9.6-8.2c0,0.2,0.1,0.4,0.1,0.6v18.1c0,0.2-0.1,0.3-0.1,0.4
		L-436.7,279.9z M-429.3,270.1c0.2,0,0.3,0.1,0.4,0.1l-14,12l-14-12c0.1,0,0.3-0.1,0.4-0.1C-456.5,270.1-429.3,270.1-429.3,270.1z
		 M-458.6,290.9c0-0.1-0.1-0.3-0.1-0.4v-18.2c0-0.2,0.1-0.4,0.1-0.7l9.6,8.2L-458.6,290.9z M-456.5,292.7c-0.2,0-0.4-0.1-0.6-0.1
		l9.8-11.2l3.7,3.2c0.2,0.2,0.5,0.3,0.7,0.3c0.3,0,0.5-0.1,0.7-0.3l3.7-3.2l9.8,11.2c-0.2,0.1-0.4,0.1-0.7,0.1H-456.5z"/>
</g>
</svg>
