<?xml version="1.0" encoding="utf-8"?>
<!-- Generator: Adobe Illustrator 19.0.0, SVG Export Plug-In . SVG Version: 6.00 Build 0)  -->
<svg version="1.1" id="Layer_1" xmlns="http://www.w3.org/2000/svg" xmlns:xlink="http://www.w3.org/1999/xlink" x="0px" y="0px"
	 viewBox="-273 365 64 64" style="enable-background:new -273 365 64 64;" xml:space="preserve">
<style type="text/css">
	.st0{fill:#0372B6;}
	.st1{fill:none;stroke:#FFFFFF;stroke-width:5;stroke-miterlimit:10;}
	.st2{fill:#FFFFFF;}
</style>
<circle class="st0" cx="-240" cy="397" r="29"/>
<g>
	<circle class="st1" cx="-241" cy="397" r="29"/>
	<g>
		<circle class="st2" cx="-245.4" cy="409.5" r="2.9"/>
		<circle class="st2" cx="-232.8" cy="409.5" r="2.9"/>
		<path class="st2" d="M-225.4,390.8c-3.7,0-17.9,0-17.9,0s-1.1,0.2-1.1,1.4c0,1.2,1.1,1.5,1.1,1.5h16l-0.9,3c-4.4,0-15.7,0-15.7,0
			s-1,0.2-1,1.3c0,1.1,1,1.4,1,1.4h14.9h0l-0.8,2.8H-246l-1.1-8.6l-0.4-2.9c0,0-0.3-2.7-0.5-3.8c-0.2-1.1-3-2.5-8.9-5.3
			c-1.4-0.6-2.6,2,0,3.3l4.7,2.2c0,0,1.1,0.6,1.2,1.5c0.1,0.9,2,15,2,15s0.1,2,1.9,2c1.8,0,16.5,0,18,0c1.5,0,1.8-1.6,1.8-1.6
			l3.6-10.6C-223.8,393.5-222.7,390.8-225.4,390.8z"/>
	</g>
</g>
</svg>
