<?xml version="1.0" encoding="utf-8"?>
<!-- Generator: Adobe Illustrator 19.0.0, SVG Export Plug-In . SVG Version: 6.00 Build 0)  -->
<svg version="1.1" id="Layer_1" xmlns="http://www.w3.org/2000/svg" xmlns:xlink="http://www.w3.org/1999/xlink" x="0px" y="0px"
	 viewBox="-273 365 64 64" style="enable-background:new -273 365 64 64;" xml:space="preserve">
<style type="text/css">
	.st0{fill:#0372B6;}
	.st1{fill:#FFFFFF;}
	.st2{fill:none;stroke:#FFFFFF;stroke-width:5;stroke-miterlimit:10;}
</style>
<circle class="st0" cx="-240" cy="397" r="29"/>
<g>
	<path class="st1" d="M-229.7,384.5c-3.5-1.9-8.2,0-11.3,3.9c-3.1-3.9-7.8-5.8-11.3-3.9c-3.8,2-5.6,7.1-2.6,12.5
		c3.1,5.5,12.2,12.1,13.9,13.3v0c0,0,0,0,0,0c0,0,0,0,0,0v0c1.7-1.2,10.8-7.7,13.9-13.3C-224.1,391.6-226,386.5-229.7,384.5z"/>
	<circle class="st2" cx="-241" cy="397" r="29"/>
</g>
</svg>
