<?xml version="1.0" encoding="utf-8"?>
<!-- Generator: Adobe Illustrator 19.0.0, SVG Export Plug-In . SVG Version: 6.00 Build 0)  -->
<svg version="1.1" id="Layer_1" xmlns="http://www.w3.org/2000/svg" xmlns:xlink="http://www.w3.org/1999/xlink" x="0px" y="0px"
	 viewBox="-447 249 64 64" style="enable-background:new -447 249 64 64;" xml:space="preserve">
<style type="text/css">
	.st0{fill:#0573B6;}
	.st1{fill:none;stroke:#FFFFFF;stroke-width:5;stroke-miterlimit:10;}
	.st2{fill:#FFFFFF;}
</style>
<circle class="st0" cx="-415" cy="281" r="30.3"/>
<g>
	<circle class="st1" cx="-415" cy="281" r="29"/>
	<g>
		<path class="st2" d="M-401.1,291.7l-6-6c1.4-2.1,2.2-4.4,2.2-7c0-1.7-0.3-3.3-1-4.8c-0.6-1.5-1.5-2.8-2.6-3.9
			c-1.1-1.1-2.4-2-3.9-2.6c-1.5-0.6-3.1-1-4.8-1c-1.7,0-3.3,0.3-4.8,1c-1.5,0.6-2.8,1.5-3.9,2.6c-1.1,1.1-2,2.4-2.6,3.9
			c-0.6,1.5-1,3.1-1,4.8c0,1.7,0.3,3.3,1,4.8c0.6,1.5,1.5,2.8,2.6,3.9c1.1,1.1,2.4,2,3.9,2.6c1.5,0.6,3.1,1,4.8,1
			c2.6,0,4.9-0.7,7-2.2l6,6c0.4,0.4,0.9,0.7,1.6,0.7c0.6,0,1.1-0.2,1.6-0.7c0.4-0.4,0.7-1,0.7-1.6
			C-400.4,292.7-400.7,292.2-401.1,291.7z M-411.7,284.3c-1.5,1.5-3.4,2.3-5.5,2.3c-2.2,0-4-0.8-5.5-2.3c-1.5-1.5-2.3-3.4-2.3-5.5
			c0-2.2,0.8-4,2.3-5.5c1.5-1.5,3.4-2.3,5.5-2.3c2.2,0,4,0.8,5.5,2.3c1.5,1.5,2.3,3.4,2.3,5.5C-409.4,280.9-410.2,282.8-411.7,284.3
			z"/>
	</g>
</g>
</svg>
